<mxfile host="app.diagrams.net" modified="2023-11-17T13:46:02.337Z" agent="Mozilla/5.0 (Macintosh; Intel Mac OS X 10_15_7) AppleWebKit/537.36 (KHTML, like Gecko) Chrome/119.0.0.0 Safari/537.36" version="22.1.3" etag="Zksl0kcBuI5l2K7185Oc" type="github">
  <diagram name="Page-1" id="aQb0oX0bix96OG6NulAz">
    <mxGraphModel>
      <root>
        <mxCell id="0" />
        <mxCell id="1" parent="0" />
      </root>
    </mxGraphModel>
  </diagram>
</mxfile>
